Coordinates
version=1
nRows=8
nColumns=28
inDegrees=yes

Units are S.I. units (second, meters, Newtons, ...)
Angles are in degrees.

endheader
time	pelvis_tilt	pelvis_list	pelvis_rotation	pelvis_tx	pelvis_ty	pelvis_tz	hip_flexion_r	hip_adduction_r	hip_rotation_r	knee_angle_r	ankle_angle_r	subtalar_angle_r	mtp_angle_r	hip_flexion_l	hip_adduction_l	hip_rotation_l	knee_angle_l	socket_flexion	socket_adduction	socket_rotation	socket_tx	socket_ty	socket_tz	foot_flex	lumbar_extension	lumbar_bending	lumbar_rotation
      0.80000000	     -2.85457925	     -8.71091848	      5.11304755	      0.36879701	      0.97820060	      0.25942108	     11.28816200	     16.01730555	      8.85286726	    -21.47561204	     -0.99718122	    -30.35722015	     -3.14287827	     24.57815685	    -20.14798959	     -0.43215338	    -73.25019630	     -2.72505665	      0.00000000	      0.00000000	      0.00000000	      0.00000000	      0.00000000	     -1.43563538	     -6.43554057	      7.27055097	     -9.63012634
      0.80416667	     -2.87829876	     -8.07000161	      5.30141300	      0.37426449	      0.97993554	      0.25789365	     10.72347214	     15.08655000	      8.29843164	    -21.13390450	     -0.88465069	    -29.54475005	     -2.43868942	     25.21197716	    -18.92095690	     -0.04499484	    -72.36069145	     -2.18767398	      0.00000000	      0.00000000	      0.00000000	      0.00000000	      0.00000000	     -1.45016136	     -6.47151605	      6.65707555	     -9.56839721
      0.80833333	     -2.88171927	     -7.61957805	      5.36712027	      0.37972712	      0.98144881	      0.25664121	     10.09676043	     14.43783856	      8.07970333	    -20.72070726	     -0.74811029	    -28.81143199	     -1.66818166	     25.84541233	    -18.00557131	      0.26321696	    -71.75387409	     -1.97672704	      0.00000000	      0.00000000	      0.00000000	      0.00000000	      0.00000000	     -1.46067370	     -6.51625328	      6.26255181	     -9.43404286
      0.81250000	     -2.94191013	     -7.36355133	      5.28998680	      0.38507306	      0.98259600	      0.25575832	      9.52861504	     14.10150972	      8.29792427	    -20.31254646	     -0.71661567	    -28.66193326	     -1.55287945	     26.59650472	    -17.40368023	      0.49589056	    -71.47028334	     -2.11848923	      0.00000000	      0.00000000	      0.00000000	      0.00000000	      0.00000000	     -1.50799688	     -6.50640735	      6.07789202	     -9.29906390
      0.81666667	     -2.76766065	     -6.81288488	      5.42065058	      0.39079305	      0.98444441	      0.25442590	      8.70414599	     13.29613781	      7.73385550	    -19.88460961	     -0.56365998	    -27.53029896	      0.34304410	     26.88127697	    -16.41597376	      0.72132388	    -70.54416963	     -1.79720196	      0.00000000	      0.00000000	      0.00000000	      0.00000000	      0.00000000	     -1.48121218	     -6.72807780	      5.59516760	     -9.15864337
      0.82083333	     -2.84945294	     -6.57006759	      5.34225816	      0.39621246	      0.98546839	      0.25363986	      8.18013327	     12.98268032	      7.93008528	    -19.50844824	     -0.60273077	    -27.45327729	      0.38467722	     27.59778115	    -15.86258744	      0.92514355	    -70.18460488	     -1.99588152	      0.00000000	      0.00000000	      0.00000000	      0.00000000	      0.00000000	     -1.54764736	     -6.67805867	      5.42329771	     -9.02174395
      0.82500000	     -2.95295135	     -6.30484743	      5.32281172	      0.40188041	      0.98662017	      0.25285752	      7.59534657	     12.62378552	      8.02254943	    -18.96703313	     -0.69885955	    -27.34031025	      0.43313105	     28.25679496	    -15.27834721	      1.13798903	    -69.56043094	     -2.03392786	      0.00000000	      0.00000000	      0.00000000	      0.00000000	      0.00000000	     -1.62285504	     -6.54465211	      5.19350547	     -8.81299494
      0.82916667	     -3.01506084	     -6.00413841	      5.32589445	      0.40751700	      0.98783357	      0.25210796	      6.99316060	     12.22255821	      8.02758346	    -18.46563843	     -0.88388488	    -27.20406368	      0.50219863	     28.82516458	    -14.68226679	      1.31263521	    -68.78423709	     -1.97473296	      0.00000000	      0.00000000	      0.00000000	      0.00000000	      0.00000000	     -1.62806744	     -6.49383934	      4.92778826	     -8.58797512
